<?xml version="1.0" encoding="UTF-8" standalone="no"?>
<svg
   enable-background="new 0 0 24 24"
   height="24px"
   viewBox="0 0 24 24"
   width="24px"
   fill="#000000"
   version="1.1"
   id="svg8"
   sodipodi:docname="star_rate_gold_24dp.svg"
   inkscape:version="1.1 (c68e22c387, 2021-05-23)"
   xmlns:inkscape="http://www.inkscape.org/namespaces/inkscape"
   xmlns:sodipodi="http://sodipodi.sourceforge.net/DTD/sodipodi-0.dtd"
   xmlns="http://www.w3.org/2000/svg"
   xmlns:svg="http://www.w3.org/2000/svg">
  <defs
     id="defs12" />
  <sodipodi:namedview
     id="namedview10"
     pagecolor="#ffffff"
     bordercolor="#666666"
     borderopacity="1.0"
     inkscape:pageshadow="2"
     inkscape:pageopacity="0.0"
     inkscape:pagecheckerboard="0"
     showgrid="false"
     inkscape:zoom="27.083333"
     inkscape:cx="12.018462"
     inkscape:cy="12.018462"
     inkscape:window-width="1440"
     inkscape:window-height="877"
     inkscape:window-x="-8"
     inkscape:window-y="-8"
     inkscape:window-maximized="1"
     inkscape:current-layer="svg8" />
  <g
     id="g6">
    <rect
       fill="none"
       height="24"
       width="24"
       x="0"
       id="rect2" />
    <polygon
       points="14.43,10 12,2 9.57,10 2,10 8.18,14.41 5.83,22 12,17.31 18.18,22 15.83,14.41 22,10"
       id="polygon4" />
  </g>
  <path
     style="fill:#ffff00;stroke-width:0.0369231"
     d="M 5.8962724,21.858462 C 5.907425,21.817846 6.427365,20.135819 7.0516951,18.120623 7.6760252,16.105428 8.178144,14.433968 8.1675146,14.406268 8.1568852,14.378569 6.7813126,13.381444 5.110686,12.190436 L 2.0731834,10.024967 5.831726,10.01556 9.5902686,10.006154 10.79384,6.0422721 c 0.661965,-2.1801352 1.211302,-3.9413659 1.220749,-3.9138463 0.0094,0.02752 0.552244,1.8112665 1.206216,3.9638819 l 1.189039,3.9138463 3.745458,0.01846 3.745458,0.01846 -3.039611,2.173859 c -1.671786,1.195623 -3.039611,2.188018 -3.039611,2.205324 0,0.01731 0.51547,1.696353 1.145488,3.731217 0.630018,2.034865 1.140941,3.711335 1.135384,3.725491 -0.0056,0.01415 -1.364256,-1.003482 -3.019333,-2.261416 -1.655077,-1.257935 -3.029048,-2.295752 -3.05327,-2.306261 -0.02422,-0.01051 -1.361759,0.982209 -2.9723074,2.206041 -1.6105477,1.223831 -2.9852467,2.267859 -3.0548866,2.320062 -0.1153465,0.08647 -0.1248125,0.08834 -0.1063406,0.02107 z"
     id="path599" />
  <path
     style="fill:#ffff00;stroke-width:0.0369231"
     d="M 5.9355607,21.793846 C 5.9778746,21.681008 7.7199674,16.014433 7.9397915,15.274605 8.0744267,14.821483 8.1762244,14.428966 8.1660089,14.402344 8.1421104,14.340066 7.5945142,13.940658 4.5829715,11.788936 L 2.1136354,10.024615 H 5.8597566 9.6058778 L 10.151983,8.2246154 c 0.657546,-2.167313 1.731169,-5.6572508 1.802452,-5.8590818 0.02821,-0.07988 0.06024,-0.1297257 0.07117,-0.1107692 0.01093,0.018956 0.548508,1.7749279 1.194613,3.9021587 l 1.174736,3.8676919 1.793291,0.0053 c 0.98631,0.0029 2.6542,0.01538 3.706421,0.02769 l 1.91313,0.02239 -2.189654,1.569231 c -3.312487,2.373917 -3.796606,2.730116 -3.796606,2.79342 0,0.03179 0.498905,1.679991 1.108678,3.662671 0.609772,1.982679 1.10408,3.625042 1.098461,3.649695 -0.01122,0.04925 -0.229626,-0.112373 -3.635736,-2.690511 -1.283266,-0.971324 -2.348406,-1.766044 -2.366977,-1.766044 -0.06383,0 -1.355674,0.963958 -4.6860488,3.496677 C 6.584253,21.369812 5.9552448,21.84 5.9421186,21.84 c -0.013126,0 -0.016077,-0.02077 -0.00656,-0.04615 z"
     id="path675" />
</svg>
